<svg xmlns="http://www.w3.org/2000/svg" viewBox="0 0 160 160">
  <defs>
    <radialGradient id="bg20" cx="50%" cy="50%"><stop offset="0%" stop-color="#0a0a20"/><stop offset="100%" stop-color="#050510"/></radialGradient>
    <linearGradient id="aurora20" x1="0%" y1="0%" x2="100%" y2="100%"><stop offset="0%" stop-color="#6366f1" stop-opacity="0.6"/><stop offset="33%" stop-color="#06b6d4" stop-opacity="0.4"/><stop offset="66%" stop-color="#10b981" stop-opacity="0.4"/><stop offset="100%" stop-color="#a855f7" stop-opacity="0.6"/></linearGradient>
    <filter id="aurora_blur"><feGaussianBlur stdDeviation="12"/></filter>
  </defs>
  <circle cx="80" cy="80" r="80" fill="url(#bg20)"/>
  <!-- aurora background -->
  <rect x="0" y="20" width="160" height="80" fill="url(#aurora20)" filter="url(#aurora_blur)" opacity="0.6"/>
  <!-- minimalist face - clean modern -->
  <!-- head outline only -->
  <path d="M58,35 Q58,22 80,21 Q102,22 102,35 L103,70 Q103,86 80,90 Q57,86 57,70 Z" fill="none" stroke="#c7d2fe" stroke-width="2"/>
  <!-- hair -->
  <path d="M58,40 Q55,25 65,20 Q80,15 95,20 Q105,25 102,40" fill="#6366f1" opacity="0.25" stroke="#818cf8" stroke-width="1"/>
  <!-- eyes - modern geometric -->
  <circle cx="70" cy="56" r="7" fill="none" stroke="#06b6d4" stroke-width="1.5"/>
  <circle cx="90" cy="56" r="7" fill="none" stroke="#06b6d4" stroke-width="1.5"/>
  <circle cx="70" cy="56" r="3.5" fill="#06b6d4" opacity="0.9"/>
  <circle cx="90" cy="56" r="3.5" fill="#06b6d4" opacity="0.9"/>
  <circle cx="68" cy="54" r="1.2" fill="white" opacity="0.6"/>
  <circle cx="88" cy="54" r="1.2" fill="white" opacity="0.6"/>
  <!-- nose minimal -->
  <line x1="78" y1="62" x2="76" y2="70" stroke="#c7d2fe" stroke-width="1" stroke-linecap="round" opacity="0.6"/>
  <line x1="82" y1="62" x2="84" y2="70" stroke="#c7d2fe" stroke-width="1" stroke-linecap="round" opacity="0.6"/>
  <!-- smile -->
  <path d="M71,78 Q80,83 89,78" fill="none" stroke="#c7d2fe" stroke-width="1.5" stroke-linecap="round"/>
  <!-- neck & shoulders -->
  <line x1="75" y1="90" x2="70" y2="108" stroke="#c7d2fe" stroke-width="1.5" opacity="0.5"/>
  <line x1="85" y1="90" x2="90" y2="108" stroke="#c7d2fe" stroke-width="1.5" opacity="0.5"/>
  <path d="M45,108 Q60,102 80,100 Q100,102 115,108" fill="none" stroke="#c7d2fe" stroke-width="1.5" opacity="0.5"/>
  <text x="80" y="130" text-anchor="middle" fill="#818cf8" font-size="7" font-weight="700" font-family="monospace">AURORA-20</text>
</svg>
