<svg xmlns="http://www.w3.org/2000/svg" viewBox="0 0 56 56">
  <rect width="56" height="56" rx="12" fill="#0d1117"/>
  <defs><linearGradient id="vi" x1="0%" y1="0%" x2="100%" y2="100%"><stop offset="0%" stop-color="#10b981"/><stop offset="100%" stop-color="#0284c7"/></linearGradient></defs>
  <!-- phone handset -->
  <path d="M14,14 Q18,10 22,14 L26,20 Q28,22 24,26 Q22,28 24,30 Q28,34 32,36 Q34,38 36,34 L40,32 Q44,28 46,30 Q50,34 46,38 Q38,46 26,40 Q18,36 14,28 Q8,18 14,14 Z" fill="url(#vi)" opacity="0.12" stroke="url(#vi)" stroke-width="1.3"/>
  <!-- wifi/signal over phone -->
  <path d="M36,14 Q40,10 44,14" fill="none" stroke="#10b981" stroke-width="1.5" stroke-linecap="round" opacity="0.5"/>
  <path d="M34,12 Q40,6 46,12" fill="none" stroke="#10b981" stroke-width="1.2" stroke-linecap="round" opacity="0.35"/>
  <circle cx="40" cy="16" r="2" fill="#34d399" opacity="0.8"/>
  <!-- sound waves from phone -->
  <path d="M20,20 Q16,24 20,28" fill="none" stroke="#06b6d4" stroke-width="1" stroke-linecap="round" opacity="0.5"/>
</svg>
